<?xml version="1.0" encoding="iso-8859-1"?>
<!-- Generator: Adobe Illustrator 19.0.0, SVG Export Plug-In . SVG Version: 6.00 Build 0)  -->
<svg version="1.1" id="Capa_1" xmlns="http://www.w3.org/2000/svg" xmlns:xlink="http://www.w3.org/1999/xlink" x="0px" y="0px"
	 viewBox="0 0 512.005 512.005" style="enable-background:new 0 0 512.005 512.005;" xml:space="preserve">
<path style="fill:#303C42;" d="M440.888,64.609l-181.333-64c-2.292-0.812-4.813-0.812-7.104,0l-181.333,64
	c-4.26,1.51-7.115,5.542-7.115,10.063v128c0,165.646,24.563,226.188,187.198,308.188c1.51,0.76,3.156,1.146,4.802,1.146
	c1.646,0,3.292-0.385,4.802-1.146c162.635-82,187.198-142.542,187.198-308.188v-128C448.003,70.151,445.148,66.12,440.888,64.609z"
	/>
<path style="fill:#0288D1;" d="M256.003,21.984L85.336,82.224v120.448c0,19.303,0.318,36.962,1.115,53.328h169.552V21.984z"/>
<path style="fill:#01579B;" d="M425.555,256c0.797-16.366,1.115-34.025,1.115-53.328V82.224l-170.667-60.24V256H425.555z"/>
<path style="fill:#0288D1;" d="M256.003,256v233.38C388.137,422.014,419.801,374.145,425.555,256H256.003z"/>
<path style="fill:#01579B;" d="M86.451,256c5.754,118.145,37.418,166.014,169.552,233.38V256H86.451z"/>
<path style="opacity:0.1;enable-background:new    ;" d="M256.003,448C105.565,371.302,85.336,341.286,85.336,182.63v20.042
	c0,158.656,20.229,210.01,170.667,286.708c150.438-76.698,170.667-128.052,170.667-286.708V182.63
	C426.669,341.286,406.44,371.302,256.003,448z"/>
<path style="fill:#303C42;" d="M349.413,216.91c-8.326-38.91-42.521-67.577-82.743-67.577c-30.395,0-58.365,16.642-73.523,42.798
	c-0.389-0.007-0.753-0.132-1.143-0.132c-35.292,0-64,28.708-64,64s28.708,64,64,64h138.667c29.406,0,53.333-23.927,53.333-53.333
	C384.003,243.879,369.565,224.533,349.413,216.91z"/>
<linearGradient id="SVGID_1_" gradientUnits="userSpaceOnUse" x1="-36.0338" y1="635.7631" x2="-28.3747" y2="628.105" gradientTransform="matrix(21.3333 0 0 -21.3333 996.2804 13791.7256)">
	<stop  offset="0" style="stop-color:#000000;stop-opacity:0.1"/>
	<stop  offset="1" style="stop-color:#000000;stop-opacity:0"/>
</linearGradient>
<path style="fill:url(#SVGID_1_);" d="M330.852,179.247l-0.047,0.033c8.996,10.59,15.563,23.398,18.608,37.63
	c20.152,7.622,34.59,26.969,34.59,49.757c0,29.406-23.927,53.333-53.333,53.333H192.003c-15.501,0-29.542-5.76-40.628-14.962
	l-0.21,0.147l155.906,155.906c84.303-51.258,110.535-98.44,117.378-188.246L330.852,179.247z"/>
<path style="fill:#F2F2F2;" d="M330.669,298.667H192.003c-23.531,0-42.667-19.135-42.667-42.667s19.135-42.667,42.667-42.667
	c13.552,0,25.99,6.219,34.135,17.063c3.552,4.719,10.24,5.656,14.938,2.125c4.708-3.542,5.656-10.229,2.125-14.938
	c-7.254-9.652-16.928-16.492-27.721-20.755c11.928-16.137,30.835-26.161,51.19-26.161c27.587,0,51.536,17.991,60.169,43.439
	c-3.988,1.544-6.836,5.358-6.836,9.895c0,5.896,4.771,10.667,10.667,10.667c17.646,0,32,14.354,32,32
	C362.669,284.313,348.315,298.667,330.669,298.667z"/>
<path style="opacity:0.1;enable-background:new    ;" d="M343.785,237.551c1.816,4.013,2.884,8.431,2.884,13.116
	c0,17.646-14.354,32-32,32H176.003c-7.648,0-14.732-2.185-20.945-5.721c7.345,12.902,21.063,21.721,36.945,21.721h138.667
	c17.646,0,32-14.354,32-32C362.669,253.706,354.891,242.576,343.785,237.551z"/>
<linearGradient id="SVGID_2_" gradientUnits="userSpaceOnUse" x1="-45.2066" y1="639.8678" x2="-25.9781" y2="630.9016" gradientTransform="matrix(21.3333 0 0 -21.3333 996.2804 13791.7256)">
	<stop  offset="0" style="stop-color:#FFFFFF;stop-opacity:0.2"/>
	<stop  offset="1" style="stop-color:#FFFFFF;stop-opacity:0"/>
</linearGradient>
<path style="fill:url(#SVGID_2_);" d="M440.888,64.609l-181.333-64c-2.292-0.812-4.813-0.812-7.104,0l-181.333,64
	c-4.26,1.51-7.115,5.542-7.115,10.063v128c0,165.646,24.563,226.188,187.198,308.188c1.51,0.76,3.156,1.146,4.802,1.146
	c1.646,0,3.292-0.385,4.802-1.146c162.635-82,187.198-142.542,187.198-308.188v-128C448.003,70.151,445.148,66.12,440.888,64.609z"
	/>
<g>
</g>
<g>
</g>
<g>
</g>
<g>
</g>
<g>
</g>
<g>
</g>
<g>
</g>
<g>
</g>
<g>
</g>
<g>
</g>
<g>
</g>
<g>
</g>
<g>
</g>
<g>
</g>
<g>
</g>
</svg>
